<svg width="16" height="16" viewBox="0 0 16 16" fill="none" xmlns="http://www.w3.org/2000/svg">
<mask id="mask0_1_238" style="mask-type:alpha" maskUnits="userSpaceOnUse" x="0" y="0" width="16" height="16">
<rect width="16" height="16" fill="#D9D9D9"/>
</mask>
<g mask="url(#mask0_1_238)">
<path d="M7.33334 8.66667H4.00001C3.81112 8.66667 3.65279 8.60278 3.52501 8.475C3.39723 8.34722 3.33334 8.18889 3.33334 8C3.33334 7.81111 3.39723 7.65278 3.52501 7.525C3.65279 7.39722 3.81112 7.33334 4.00001 7.33334H7.33334V4C7.33334 3.81111 7.39723 3.65278 7.52501 3.525C7.65279 3.39722 7.81112 3.33334 8.00001 3.33334C8.1889 3.33334 8.34723 3.39722 8.47501 3.525C8.60279 3.65278 8.66668 3.81111 8.66668 4V7.33334H12C12.1889 7.33334 12.3472 7.39722 12.475 7.525C12.6028 7.65278 12.6667 7.81111 12.6667 8C12.6667 8.18889 12.6028 8.34722 12.475 8.475C12.3472 8.60278 12.1889 8.66667 12 8.66667H8.66668V12C8.66668 12.1889 8.60279 12.3472 8.47501 12.475C8.34723 12.6028 8.1889 12.6667 8.00001 12.6667C7.81112 12.6667 7.65279 12.6028 7.52501 12.475C7.39723 12.3472 7.33334 12.1889 7.33334 12V8.66667Z" fill="#BEBEBC"/>
</g>
</svg>
