<svg width="20" height="20" viewBox="0 0 20 20" fill="none" xmlns="http://www.w3.org/2000/svg">
<mask id="mask0_35_6" style="mask-type:alpha" maskUnits="userSpaceOnUse" x="0" y="0" width="20" height="20">
<rect width="20" height="20" fill="#D9D9D9"/>
</mask>
<g mask="url(#mask0_35_6)">
<path d="M5.83347 17.5C5.37514 17.5 4.98278 17.3368 4.65639 17.0104C4.33 16.684 4.16681 16.2917 4.16681 15.8333V5C3.9307 5 3.73278 4.92014 3.57306 4.76042C3.41333 4.60069 3.33347 4.40278 3.33347 4.16667C3.33347 3.93056 3.41333 3.73264 3.57306 3.57292C3.73278 3.41319 3.9307 3.33333 4.16681 3.33333H7.50014C7.50014 3.09722 7.58 2.89931 7.73972 2.73958C7.89945 2.57986 8.09736 2.5 8.33347 2.5H11.6668C11.9029 2.5 12.1008 2.57986 12.2606 2.73958C12.4203 2.89931 12.5001 3.09722 12.5001 3.33333H15.8335C16.0696 3.33333 16.2675 3.41319 16.4272 3.57292C16.5869 3.73264 16.6668 3.93056 16.6668 4.16667C16.6668 4.40278 16.5869 4.60069 16.4272 4.76042C16.2675 4.92014 16.0696 5 15.8335 5V15.8333C15.8335 16.2917 15.6703 16.684 15.3439 17.0104C15.0175 17.3368 14.6251 17.5 14.1668 17.5H5.83347ZM14.1668 5H5.83347V15.8333H14.1668V5ZM8.33347 14.1667C8.56958 14.1667 8.7675 14.0868 8.92722 13.9271C9.08695 13.7674 9.16681 13.5694 9.16681 13.3333V7.5C9.16681 7.26389 9.08695 7.06597 8.92722 6.90625C8.7675 6.74653 8.56958 6.66667 8.33347 6.66667C8.09736 6.66667 7.89945 6.74653 7.73972 6.90625C7.58 7.06597 7.50014 7.26389 7.50014 7.5V13.3333C7.50014 13.5694 7.58 13.7674 7.73972 13.9271C7.89945 14.0868 8.09736 14.1667 8.33347 14.1667ZM11.6668 14.1667C11.9029 14.1667 12.1008 14.0868 12.2606 13.9271C12.4203 13.7674 12.5001 13.5694 12.5001 13.3333V7.5C12.5001 7.26389 12.4203 7.06597 12.2606 6.90625C12.1008 6.74653 11.9029 6.66667 11.6668 6.66667C11.4307 6.66667 11.2328 6.74653 11.0731 6.90625C10.9133 7.06597 10.8335 7.26389 10.8335 7.5V13.3333C10.8335 13.5694 10.9133 13.7674 11.0731 13.9271C11.2328 14.0868 11.4307 14.1667 11.6668 14.1667Z" fill="#303030"/>
</g>
</svg>
