<svg width="62" height="30" viewBox="0 0 62 30" fill="none" xmlns="http://www.w3.org/2000/svg">
<rect width="30" height="30" rx="5" fill="#5E24FF"/>
<path d="M58.4989 4H61.4V5.74066H59.9495V14.0088H61.4V15.7495H59.9495V24.0176H61.4V25.7582H58.4989V4Z" fill="#303030"/>
<path d="M54.7275 4H56.178V13.8927H56.1925C56.1925 13.7864 56.2215 13.0466 56.2796 11.6734C56.3376 10.3002 56.4246 8.32264 56.5407 5.74066H56.5262L56.5407 5.71165C56.5407 5.57626 56.56 5.13143 56.5987 4.37714C56.6084 4.21275 56.6132 4.08703 56.6132 4H58.0637V25.7582H56.6132V15.8655H56.5987C56.5987 15.9332 56.5358 17.4659 56.4101 20.4637C56.3134 22.5912 56.236 24.356 56.178 25.7582H54.7275V4Z" fill="#303030"/>
<path d="M50.9561 4H52.4066V14.0088H52.8418V4H54.2923V25.7582H52.8418V15.7495H52.4066V25.7582H50.9561V4Z" fill="#303030"/>
<path d="M47.1846 4H50.5209V25.7582H49.0703V15.7495H48.6352V25.7582H47.1846V4ZM48.6352 5.74066V14.0088H49.0703V5.74066H48.6352Z" fill="#303030"/>
<path d="M43.4132 4H46.7494V25.7582H45.2989V5.74066H44.8637V25.7582H42.978V24.0176H43.4132V4Z" fill="#303030"/>
<path d="M39.6418 4H42.5429V5.74066H41.0923V14.0088H42.5429V15.7495H41.0923V24.0176H42.5429V25.7582H39.6418V4Z" fill="#303030"/>
<path d="M35.4352 4H38.7714V24.0176H39.2066V25.7582H35V24.0176H35.4352V4ZM36.8857 5.74066V24.0176H37.3209V5.74066H36.8857Z" fill="#303030"/>
</svg>
