<svg width="20" height="20" viewBox="0 0 20 20" fill="none" xmlns="http://www.w3.org/2000/svg">
<mask id="mask0_1_206" style="mask-type:alpha" maskUnits="userSpaceOnUse" x="0" y="0" width="20" height="20">
<rect width="20" height="20" fill="#D9D9D9"/>
</mask>
<g mask="url(#mask0_1_206)">
<path d="M4.99999 11.6667C4.54166 11.6667 4.1493 11.5035 3.82291 11.1771C3.49652 10.8507 3.33333 10.4583 3.33333 10C3.33333 9.54167 3.49652 9.1493 3.82291 8.82292C4.1493 8.49653 4.54166 8.33333 4.99999 8.33333C5.45833 8.33333 5.85069 8.49653 6.17708 8.82292C6.50347 9.1493 6.66666 9.54167 6.66666 10C6.66666 10.4583 6.50347 10.8507 6.17708 11.1771C5.85069 11.5035 5.45833 11.6667 4.99999 11.6667ZM9.99999 11.6667C9.54166 11.6667 9.1493 11.5035 8.82291 11.1771C8.49652 10.8507 8.33333 10.4583 8.33333 10C8.33333 9.54167 8.49652 9.1493 8.82291 8.82292C9.1493 8.49653 9.54166 8.33333 9.99999 8.33333C10.4583 8.33333 10.8507 8.49653 11.1771 8.82292C11.5035 9.1493 11.6667 9.54167 11.6667 10C11.6667 10.4583 11.5035 10.8507 11.1771 11.1771C10.8507 11.5035 10.4583 11.6667 9.99999 11.6667ZM15 11.6667C14.5417 11.6667 14.1493 11.5035 13.8229 11.1771C13.4965 10.8507 13.3333 10.4583 13.3333 10C13.3333 9.54167 13.4965 9.1493 13.8229 8.82292C14.1493 8.49653 14.5417 8.33333 15 8.33333C15.4583 8.33333 15.8507 8.49653 16.1771 8.82292C16.5035 9.1493 16.6667 9.54167 16.6667 10C16.6667 10.4583 16.5035 10.8507 16.1771 11.1771C15.8507 11.5035 15.4583 11.6667 15 11.6667Z" fill="#6A6A6A"/>
</g>
</svg>
