<svg width="128" height="128" viewBox="0 0 128 128" fill="none" xmlns="http://www.w3.org/2000/svg">
<g clip-path="url(#clip0_47_2)">
<path d="M-0.199951 93.42C-0.199951 107.3 28.4501 118.53 63.7901 118.53C99.1301 118.53 127.79 107.3 127.79 93.42C127.79 79.55 126.32 9.46997 63.7901 9.46997C1.27005 9.46997 -0.199951 79.55 -0.199951 93.42Z" fill="#FCC21B"/>
<path d="M31.1201 63.44C30.8701 63.44 30.6301 63.44 30.3801 63.43C29.6523 63.4014 28.9656 63.0852 28.4707 62.5509C27.9758 62.0166 27.713 61.3078 27.7401 60.58C27.8001 59.06 29.0701 57.87 30.5901 57.94C36.7801 58.18 42.2401 54.15 43.8501 48.15C44.2401 46.68 45.7501 45.81 47.2201 46.21C48.6901 46.6 49.5601 48.11 49.1601 49.58C46.9501 57.82 39.5901 63.44 31.1201 63.44ZM96.4701 63.44C88.0001 63.44 80.6401 57.82 78.4301 49.56C78.2433 48.8559 78.3424 48.1066 78.7058 47.4753C79.0692 46.8441 79.6674 46.382 80.3701 46.19C81.8401 45.8 83.3501 46.67 83.7401 48.13C85.3501 54.13 90.8101 58.16 97.0001 57.92C97.7272 57.8956 98.4345 58.1593 98.9682 58.6537C99.5019 59.148 99.8188 59.8332 99.8501 60.56C99.9101 62.08 98.7301 63.36 97.2101 63.41C96.9601 63.44 96.7201 63.44 96.4701 63.44Z" fill="#2F2F2F"/>
<path d="M6.92999 67.54C7.96999 72.23 11.03 75.15 13.61 75.95C16.5 76.84 19.12 76.41 20.99 74.75C23.36 72.64 24.18 68.91 23.32 64.24C21.75 55.85 22.86 41.07 22.87 40.93C22.91 40.36 22.63 39.84 22.11 39.6C21.61 39.34 21.01 39.44 20.59 39.82C6.24999 52.86 5.86999 62.78 6.92999 67.54Z" fill="white"/>
<path d="M84.84 68.79C75.36 68.79 72.23 73.45 63.79 73.45C55.35 73.45 52.22 68.79 42.74 68.79C33.26 68.79 25.58 75.45 25.58 83.67C25.58 91.89 33.26 98.55 42.74 98.55C52.22 98.55 55.35 93.89 63.79 93.89C72.23 93.89 75.36 98.55 84.84 98.55C94.32 98.55 102 91.88 102 83.66C102 75.45 94.32 68.79 84.84 68.79Z" fill="#ED6C30"/>
</g>
<defs>
<clipPath id="clip0_47_2">
<rect width="128" height="128" fill="white"/>
</clipPath>
</defs>
</svg>
