<svg width="20" height="20" viewBox="0 0 20 20" fill="none" xmlns="http://www.w3.org/2000/svg">
<mask id="mask0_15_361" style="mask-type:alpha" maskUnits="userSpaceOnUse" x="0" y="0" width="20" height="20">
<rect width="20" height="20" transform="matrix(1 0 0 -1 0 20)" fill="#D9D9D9"/>
</mask>
<g mask="url(#mask0_15_361)">
<path d="M5.68749 10L8.10416 7.58333C8.27083 7.41667 8.35069 7.22222 8.34374 7C8.3368 6.77778 8.24999 6.58333 8.08333 6.41667C7.91666 6.26389 7.72222 6.18403 7.49999 6.17708C7.27777 6.17014 7.08333 6.25 6.91666 6.41667L3.08333 10.25C2.91666 10.4167 2.83333 10.6111 2.83333 10.8333C2.83333 11.0556 2.91666 11.25 3.08333 11.4167L6.91666 15.25C7.06944 15.4028 7.26041 15.4792 7.48958 15.4792C7.71874 15.4792 7.91666 15.4028 8.08333 15.25C8.24999 15.0833 8.33333 14.8854 8.33333 14.6563C8.33333 14.4271 8.24999 14.2292 8.08333 14.0625L5.68749 11.6667H13.3333C14.4861 11.6667 15.4687 11.2604 16.2812 10.4479C17.0937 9.63542 17.5 8.65278 17.5 7.5V5C17.5 4.76389 17.4201 4.56597 17.2604 4.40625C17.1007 4.24653 16.9028 4.16667 16.6667 4.16667C16.4306 4.16667 16.2326 4.24653 16.0729 4.40625C15.9132 4.56597 15.8333 4.76389 15.8333 5V7.5C15.8333 8.19444 15.5903 8.78472 15.1042 9.27083C14.6181 9.75694 14.0278 10 13.3333 10H5.68749Z" fill="white"/>
</g>
</svg>
